PathFileType	4	(X/Y/Z)	T1_P2_Vision_NoMovement_3_0-731.trc
DataRate	CameraRate	NumFrames	NumMarkers	Units	OrigDataRate	OrigDataStartFrame	OrigNumFrames
60	60	4	27	m	60	274	731
Frame#	Time	RHip			RKnee			RAnkle			RBigToe			RSmallToe			RHeel			LHip			LKnee			LAnkle			LBigToe			LSmallToe			LHeel			Neck			Head			Nose			RShoulder			RElbow			RWrist			RThumb			RIndex			RPinky			LShoulder			LElbow			LWrist			LThumb			LIndex			LPinky		
		X1	Y1	Z1	X2	Y2	Z2	X3	Y3	Z3	X4	Y4	Z4	X5	Y5	Z5	X6	Y6	Z6	X7	Y7	Z7	X8	Y8	Z8	X9	Y9	Z9	X10	Y10	Z10	X11	Y11	Z11	X12	Y12	Z12	X13	Y13	Z13	X14	Y14	Z14	X15	Y15	Z15	X16	Y16	Z16	X17	Y17	Z17	X18	Y18	Z18	X19	Y19	Z19	X20	Y20	Z20	X21	Y21	Z21	X22	Y22	Z22	X23	Y23	Z23	X24	Y24	Z24	X25	Y25	Z25	X26	Y26	Z26	X27	Y27	Z27
275	4.583333333333333	449.4692846057447	3667.7728694819507	627.8154309100032	841.1499541249517	3700.626298027348	643.0987004844144	1208.4178886856112	3718.612383954199	674.9415899355616	1290.119423169201	3639.2739274124556	648.2281377385578	1287.3288124806913	3689.3974870899638	606.0580387280883	1285.3171179658718	3801.1334673339734	742.4461700139863	466.49266693930593	3608.526745713196	841.4495052413635	846.8763306951375	3593.675186624604	837.5422682343501	1235.128453669511	3680.3794242695353	856.2716922383435	1301.4307279720833	3540.150346384695	795.1888075111724	1280.532454567395	3528.170112363381	835.5343784320468	1273.1613492602112	3731.9746605005225	866.0556750564076	-125.89694177562701	3612.4072412486107	732.2904026959043	-388.6434514906159	3556.5870396754217	679.0775043320991	-246.37886088929548	3511.085944600386	663.5469793803144	-43.34976454975845	3655.1962389437754	573.9657414011003	196.50462523762457	3675.8520856284576	523.0480410555131	353.77918515521714	3542.946063503023	618.1386946335056	407.7819410388582	3458.014462119187	664.3143017525585	436.72208075925636	3479.822747283696	700.1390704035573	462.6172625317025	3468.176290026973	668.2115711277767	-36.33559914276534	3552.092485202529	875.3036007842569	213.7171050975363	3475.8395577111423	883.56155973273	356.2220416273365	3401.62588766163	701.3356294393941	394.4544905977756	3419.737235446011	608.9021216367947	433.34723544043936	3419.6367319005662	601.1943462713411	462.2555478040938	3428.8227264213633	655.9606735852711
276	4.6	452.38678939944526	3667.129295912401	627.5762344025098	842.9057994350254	3703.976144787284	643.6211002718846	1209.0033948571092	3720.027812608906	675.9499943849431	1288.0733526052327	3635.6394027923247	646.9486943368764	1287.1091193018128	3689.805819585924	606.2805917762981	1286.4085869667226	3801.986395548939	742.534245659313	467.58828333495035	3601.6823038627786	838.9198338328983	848.3359253589934	3594.864624901192	837.958364493831	1235.4773825315563	3680.4089753494186	856.3230460953982	1302.9248429970285	3540.8404271243603	796.4768019329441	1280.4120215724292	3527.468448362628	834.8614162084754	1273.9213183447723	3728.972309428061	865.3126066049421	-125.81437761858017	3611.880705652774	732.689362199638	-387.4316544739721	3557.351010771114	680.0626030258079	-246.44812059289444	3514.4912573236234	668.7912351271383	-43.210607803033426	3655.0411044879884	573.8819234656573	196.85781437926835	3674.852400468718	523.8895275447862	353.81684527694233	3542.9184204752783	618.1581685188137	409.9078886865584	3467.195165193054	667.4865461566911	436.62656028956235	3479.8664517568996	700.5041926192735	462.25280386807395	3466.740293447928	667.2833805404848	-37.66340000768801	3545.1554196379657	872.701921015735	213.59008632874338	3477.457030366132	886.0847592158295	356.2073655899429	3400.6229125864556	701.0207643056475	395.46328047024764	3420.145681027492	608.838734987437	433.20150918653474	3419.0067859319133	601.0049204219417	462.07244448486585	3427.5229824398634	654.6461440656878
277	4.616666666666666	455.25223789648845	3667.617357855932	627.0976260330038	842.6310495248777	3704.7950862000685	643.3243843904232	1208.4927550200264	3718.574790890896	674.7948472892297	1287.1363851984318	3634.145439760628	646.355988141067	1286.6895624870233	3690.5272347116343	606.6770232156673	1286.0993734639537	3801.735768801547	742.5376530918842	469.15640964479087	3598.4411321180455	837.5302246542436	848.3817948102691	3594.8825210561117	837.9199864267505	1235.1224337107724	3680.154849429156	856.1390746908081	1304.9504119799144	3542.9297955537354	798.6186192509751	1280.3918018169982	3527.0251603848806	834.5099681998321	1272.6368670221875	3724.627268756327	863.8598469757136	-125.73645040870221	3612.0260530887294	732.7710164799302	-386.852519002094	3557.7778110030386	680.35030929388	-246.56813490281544	3519.331970538004	675.3042951167664	-42.70774684681881	3654.578637252472	573.6357093551435	197.06546903365995	3673.8396074823277	525.1836872572171	353.698132924407	3542.820874357423	618.123068346274	412.9891315480377	3476.0093722628762	671.318436557331	436.52375468764177	3480.0229032835487	700.155991874595	461.3645694792689	3463.0226664603406	664.7516728216332	-38.83285644435035	3539.1207782635256	870.6629020213593	214.92093001990833	3477.5364442705313	886.6022770370546	356.0978464201561	3399.2151111127864	700.5668763911667	396.5129465442494	3420.15646591617	609.2325025850992	432.5060383209677	3417.6897320675325	600.9353045701494	461.054479505109	3425.034043050168	652.2329412448706
278	4.633333333333334	456.47353653155744	3668.0429439799527	626.8837631584728	840.9167021730201	3703.900893867669	643.137186264571	1207.8704720999829	3715.7721597807713	673.1617261791098	1288.517988022317	3636.7744595362738	647.217187275973	1286.6747764903203	3690.5492540914906	606.6843747177112	1285.543258991646	3800.9442560046627	742.9897665399959	470.17616824344924	3600.3018929782943	838.0417951655438	847.6403880802546	3594.7623212588264	837.7602061639602	1234.9339725464747	3680.014521953077	856.0398735219126	1305.3221689105528	3542.37453397988	799.1512357116032	1281.397167512925	3528.1076119922645	835.6255783314707	1270.6538241431617	3720.816434830109	862.4287755817954	-125.65343059552288	3612.149334281697	732.6811733142133	-386.65536970976774	3557.6948869963708	680.2505025300537	-246.67724990706643	3523.187515608643	680.3411205395064	-41.96732648133799	3653.879100820687	573.282047592956	197.43141125371585	3672.8329181558897	526.0956245378251	353.148347712091	3542.5460323951033	617.9853399774432	414.954606742682	3478.1469676960096	673.6034975500062	436.433405262905	3480.0848564137013	699.8144651292457	459.87642787668665	3457.8829505651693	661.2249646181597	-38.686507414630306	3540.7989558834743	872.2693075034298	216.06841947673976	3475.181533687426	884.5531202193717	356.02656299255494	3398.5386202064938	700.351236792005	397.5794795873016	3419.918198543751	610.1844693673511	431.15186796763453	3416.0634107341493	601.3378912482166	459.9707677114496	3423.339726044427	650.6166491905191
